<svg xmlns="http://www.w3.org/2000/svg" width="186.581" height="50.484" viewBox="0 0 186.581 50.484">
  <g id="logo-2" transform="translate(-68.931 -29.875)">
    <text id="_.com" data-name=".com" transform="translate(219.57 75.359)" fill="#040446" font-size="14" font-family="Mont-BoldItalic, Mont" font-weight="700" font-style="italic" letter-spacing="-0.02em"><tspan x="0" y="0">.com</tspan></text>
    <path id="Path_2" data-name="Path 2" d="M11.3-9.593c5.635,0,9.359-2.964,9.359-7.518,0-5.436-4.647-6.207-8.288-6.861-2.318-.421-4.223-.766-4.223-2.254,0-1.277,1.109-2.138,2.987-2.138,2.1,0,3.347.875,3.37,2.649h5.726c-.023-4.46-3.558-7.458-8.945-7.458s-8.98,2.915-8.98,7.139c0,5.26,4.535,6.213,8.1,6.807,2.358.394,4.294.856,4.294,2.382,0,1.491-1.5,2.25-3.174,2.25-2.164,0-3.686-.992-3.716-2.979H1.931c.03,4.783,3.772,7.98,9.374,7.98Zm22.65,0a11.326,11.326,0,0,0,11.458-9.415H39.338a5.692,5.692,0,0,1-5.384,3.743,5.875,5.875,0,0,1-5.733-6.15A5.792,5.792,0,0,1,33.955-27.5a5.737,5.737,0,0,1,5.389,3.483h5.992a11.168,11.168,0,0,0-11.35-9.156A11.538,11.538,0,0,0,22.1-21.45a11.661,11.661,0,0,0,3.412,8.441,11.661,11.661,0,0,0,8.439,3.416ZM59.31-32.664a7.613,7.613,0,0,0-6.472,2.858L51.766-32.54H47.9v22.317H53.93V-21.818c0-3.648,1.345-5.155,4.745-5.155H61.3v-5.692ZM74.162-9.593c6.311,0,10.467-4.028,10.467-10.054V-32.54H78.595v12.207c0,3.133-1.638,5.068-4.433,5.068s-4.467-1.894-4.467-5.068V-32.54H63.661v12.894C63.661-13.62,67.857-9.593,74.162-9.593ZM99.277-33.17a10.783,10.783,0,0,0-6.124,1.839v-9.252H92.039l-4.92,5.269v25.091h4.456l.715-1.865a10.693,10.693,0,0,0,6.987,2.5A11.416,11.416,0,0,0,111.01-21.381,11.412,11.412,0,0,0,99.277-33.171ZM98.785-15.3a5.933,5.933,0,0,1-4.347-1.736A5.933,5.933,0,0,1,92.7-21.381,5.937,5.937,0,0,1,98.785-27.5a5.927,5.927,0,0,1,6.075,6.116,5.918,5.918,0,0,1-1.729,4.348A5.918,5.918,0,0,1,98.784-15.3Zm15.058,5.074h6.034l-.019-30.9h-1.123l-4.907,5.26Zm9.576-25.292h6.011v-5.609h-6.011Zm-.011,25.292h6.034V-32.54h-6.034Zm41.2-5.372a3.106,3.106,0,0,1-3.437-3.4v-8.7h6.057V-32.54h-6.158v-5.823h-1.153l-8.814,9.37v1.3h4.035v9.5c0,4.952,3.017,7.969,7.927,7.969h4.287V-15.6ZM141.971-23.97c-2.318-.421-4.223-.766-4.223-2.254,0-1.277,1.109-2.138,2.987-2.138,2.1,0,3.347.876,3.368,2.649h5.726c-.023-4.459-3.558-7.457-8.945-7.457s-8.979,2.916-8.979,7.138c0,5.26,4.535,6.213,8.1,6.807,2.358.395,4.294.857,4.294,2.382,0,1.491-1.5,2.251-3.175,2.251-2.164,0-3.686-.992-3.716-2.98h-5.883c.03,4.783,3.772,7.98,9.374,7.98,5.635,0,9.359-2.964,9.359-7.518C150.258-22.547,145.611-23.317,141.971-23.97ZM179.153-9.593c5.635,0,9.359-2.964,9.359-7.518,0-5.436-4.647-6.207-8.288-6.861-2.318-.421-4.223-.766-4.223-2.254,0-1.277,1.109-2.138,2.987-2.138,2.1,0,3.347.875,3.37,2.649h5.726c-.023-4.46-3.558-7.458-8.945-7.458s-8.98,2.915-8.98,7.139c0,5.26,4.535,6.213,8.1,6.807,2.358.394,4.294.856,4.294,2.382,0,1.491-1.5,2.25-3.174,2.25-2.164,0-3.686-.992-3.716-2.979H169.78c.03,4.783,3.772,7.98,9.374,7.98Z" transform="translate(67 71)" fill="#040446"/>
  </g>
</svg>
